<svg width="412" height="212" viewBox="0 0 412 212" fill="none" xmlns="http://www.w3.org/2000/svg">
<path d="M111.088 61.2812C117.924 61.6719 123.539 64.3086 127.934 69.1914C132.328 73.9766 135.502 79.4453 137.455 85.5977C139.408 91.75 140.385 98.0488 140.385 104.494C140.385 110.939 139.408 117.238 137.455 123.391C135.6 129.543 132.426 135.061 127.934 139.943C123.539 144.729 117.924 147.316 111.088 147.707H57.1816C54.5449 147.609 52.2988 146.682 50.4434 144.924C48.6855 143.068 47.7578 140.822 47.6602 138.186V101.857C47.7578 99.123 48.7832 96.877 50.7363 95.1191C52.6895 93.2637 55.0332 92.3359 57.7676 92.3359C60.4043 92.4336 62.6504 93.4102 64.5059 95.2656C66.3613 97.0234 67.3379 99.2207 67.4355 101.857V124.123C67.4355 126.76 68.8027 128.078 71.5371 128.078H106.107C109.818 127.883 112.895 126.467 115.336 123.83C117.777 121.193 119.535 118.215 120.609 114.895C121.781 111.477 122.367 108.01 122.367 104.494C122.367 100.979 121.781 97.5605 120.609 94.2402C119.535 90.8223 117.777 87.7949 115.336 85.1582C112.895 82.5215 109.818 81.1055 106.107 80.9102H57.1816C51.3223 80.4219 48.1484 77.248 47.6602 71.3887C47.6602 68.6543 48.5391 66.3105 50.2969 64.3574C52.1523 62.4043 54.4473 61.3789 57.1816 61.2812H111.088ZM251.127 71.0957C251.127 73.8301 250.15 76.125 248.197 77.9805C246.342 79.9336 244.047 80.9102 241.312 80.9102H182.719C180.863 81.0078 179.301 81.4473 178.031 82.2285C176.859 82.9121 175.98 83.7422 175.395 84.7188C174.809 85.5977 174.516 86.5254 174.516 87.502C174.516 88.4785 174.809 89.4551 175.395 90.4316C175.98 91.3105 176.859 92.1406 178.031 92.9219C179.301 93.6055 180.863 93.9961 182.719 94.0938H224.32C231.156 94.2891 236.771 95.9004 241.166 98.9277C245.658 101.857 248.832 105.275 250.688 109.182C252.641 112.99 253.617 116.896 253.617 120.9C253.617 124.807 252.641 128.713 250.688 132.619C248.734 136.428 245.561 139.846 241.166 142.873C236.771 145.803 231.156 147.268 224.32 147.268H223.441C222.855 147.365 222.27 147.414 221.684 147.414H166.312C163.578 147.414 161.234 146.486 159.281 144.631C157.426 142.678 156.498 140.334 156.498 137.6C156.498 134.865 157.475 132.57 159.428 130.715C161.283 128.762 163.578 127.785 166.312 127.785H225.199C227.055 127.883 228.568 127.541 229.74 126.76C231.01 125.979 231.938 125.1 232.523 124.123C233.109 123.049 233.402 121.975 233.402 120.9C233.402 120.217 233.109 119.289 232.523 118.117C231.938 116.848 231.01 115.822 229.74 115.041C228.568 114.26 227.055 113.82 225.199 113.723H183.598C176.762 113.527 171.098 111.965 166.605 109.035C162.211 106.105 159.037 102.785 157.084 99.0742C155.229 95.2656 154.301 91.4082 154.301 87.502C154.301 83.6934 155.277 79.9336 157.23 76.2227C159.184 72.4141 162.357 69.0449 166.752 66.1152C171.146 63.1855 176.762 61.623 183.598 61.4277H184.477C185.062 61.3301 185.648 61.2812 186.234 61.2812H241.312C244.047 61.2812 246.342 62.2578 248.197 64.2109C250.15 66.0664 251.127 68.3613 251.127 71.0957ZM297.855 61.2812H359.672C362.406 61.3789 364.652 62.4043 366.41 64.3574C368.266 66.3105 369.193 68.6543 369.193 71.3887C368.705 77.248 365.531 80.4219 359.672 80.9102H302.836C299.125 81.1055 296.049 82.5215 293.607 85.1582C291.166 87.7949 289.359 90.8223 288.188 94.2402C287.113 97.5605 286.576 100.979 286.576 104.494C286.576 108.01 287.113 111.477 288.188 114.895C289.359 118.215 291.166 121.193 293.607 123.83C296.049 126.467 299.125 127.883 302.836 128.078H347.367C349.125 127.98 350.053 127.004 350.15 125.148V116.652C350.053 114.699 349.125 113.723 347.367 113.723H309.867C307.133 113.723 304.789 112.795 302.836 110.939C300.98 108.986 300.053 106.643 300.053 103.908C300.053 101.174 300.98 98.8301 302.836 96.877C304.789 95.0215 307.133 94.0938 309.867 94.0938H359.965C362.699 94.0938 365.043 95.0215 366.996 96.877C368.754 98.7324 369.682 100.979 369.779 103.615V103.908V138.186C369.682 140.822 368.754 143.02 366.996 144.777C365.141 146.633 362.895 147.609 360.258 147.707H297.855C291.02 147.316 285.355 144.729 280.863 139.943C276.469 135.061 273.295 129.543 271.342 123.391C269.486 117.238 268.559 110.939 268.559 104.494C268.559 98.0488 269.535 91.75 271.488 85.5977C273.441 79.4453 276.615 73.9766 281.01 69.1914C285.404 64.3086 291.02 61.6719 297.855 61.2812Z" fill="black"/>
<path d="M10.1758 190.457H12.4492C14.4102 190.457 15.9023 189.945 16.9258 188.922C17.9492 187.891 18.4609 186.391 18.4609 184.422C18.4609 182.312 17.9336 180.781 16.8789 179.828C15.8242 178.867 14.2344 178.387 12.1094 178.387H10.1758V190.457ZM7 193V175.832H11.9688C13.4688 175.832 14.8125 176.004 16 176.348C17.1875 176.691 18.207 177.211 19.0586 177.906C19.918 178.594 20.5742 179.484 21.0273 180.578C21.4883 181.664 21.7188 182.922 21.7188 184.352C21.7188 187.125 20.8828 189.262 19.2109 190.762C17.5391 192.254 15.2227 193 12.2617 193H7ZM24.5078 193V180.121H27.5781V193H24.5078ZM24.5078 178.246V175.621H27.5898V178.246H24.5078ZM34.9023 193.234C33.0039 193.234 31.4844 192.91 30.3438 192.262L30.6602 189.953C31.1758 190.234 31.832 190.488 32.6289 190.715C33.4258 190.934 34.1523 191.043 34.8086 191.043C35.4883 191.043 36.0156 190.918 36.3906 190.668C36.7734 190.41 36.9688 190.035 36.9766 189.543C36.9766 189.098 36.7969 188.746 36.4375 188.488C36.0859 188.23 35.4102 187.91 34.4102 187.527C34.0664 187.402 33.8438 187.32 33.7422 187.281C32.5547 186.82 31.6992 186.309 31.1758 185.746C30.6523 185.176 30.3906 184.406 30.3906 183.438C30.3906 182.266 30.8125 181.367 31.6562 180.742C32.5078 180.117 33.6914 179.805 35.207 179.805C36.8477 179.805 38.2891 180.113 39.5312 180.73L38.7695 182.852C37.543 182.281 36.375 181.996 35.2656 181.996C34.6484 181.996 34.1641 182.102 33.8125 182.312C33.4688 182.516 33.2969 182.828 33.2969 183.25C33.2969 183.648 33.4648 183.961 33.8008 184.188C34.1367 184.406 34.793 184.695 35.7695 185.055C35.8008 185.062 35.9023 185.098 36.0742 185.16C36.2461 185.223 36.3789 185.273 36.4727 185.312C37.6523 185.742 38.5195 186.258 39.0742 186.859C39.6289 187.453 39.9062 188.23 39.9062 189.191C39.8984 190.48 39.4609 191.477 38.5938 192.18C37.7266 192.883 36.4961 193.234 34.9023 193.234ZM47.9805 193.246C46.0117 193.246 44.4766 192.66 43.375 191.488C42.2812 190.316 41.7344 188.641 41.7344 186.461C41.7344 184.352 42.3086 182.715 43.457 181.551C44.6133 180.387 46.1328 179.805 48.0156 179.805C49.5234 179.805 50.7969 180.129 51.8359 180.777L51.1094 182.969C50.0469 182.414 49.0586 182.137 48.1445 182.137C47.1055 182.137 46.2852 182.508 45.6836 183.25C45.0898 183.992 44.793 185.074 44.793 186.496C44.793 187.934 45.0859 189.027 45.6719 189.777C46.2656 190.527 47.1016 190.902 48.1797 190.902C49.3047 190.902 50.3867 190.57 51.4258 189.906L51.7188 192.238C51.1797 192.598 50.6211 192.855 50.043 193.012C49.4648 193.168 48.7773 193.246 47.9805 193.246ZM54.1562 193V175.375L57.2266 175.176V178.891C57.2266 179.07 57.2148 179.57 57.1914 180.391C57.168 181.203 57.1562 181.617 57.1562 181.633C58.1797 180.414 59.5547 179.805 61.2812 179.805C62.7188 179.805 63.832 180.219 64.6211 181.047C65.418 181.867 65.8164 183.133 65.8164 184.844V193H62.7461V185.184C62.7461 184.129 62.5781 183.355 62.2422 182.863C61.9062 182.371 61.3359 182.125 60.5312 182.125C59.8438 182.125 59.2344 182.301 58.7031 182.652C58.1719 182.996 57.7734 183.441 57.5078 183.988C57.3203 184.707 57.2266 185.645 57.2266 186.801V193H54.1562ZM72.25 193.246C71.0547 193.246 70.0859 192.918 69.3438 192.262C68.6094 191.598 68.2422 190.645 68.2422 189.402C68.2422 188.066 68.6797 187.078 69.5547 186.438C70.4297 185.789 71.75 185.379 73.5156 185.207C73.7578 185.176 74.0195 185.145 74.3008 185.113C74.582 185.082 74.8984 185.051 75.25 185.02C75.6016 184.988 75.8789 184.961 76.082 184.938V184.258C76.082 183.477 75.9023 182.91 75.543 182.559C75.1836 182.199 74.6367 182.02 73.9023 182.02C72.8555 182.02 71.5625 182.312 70.0234 182.898C70.0156 182.875 69.8867 182.52 69.6367 181.832C69.3867 181.145 69.2578 180.793 69.25 180.777C70.7656 180.129 72.4062 179.805 74.1719 179.805C75.9062 179.805 77.168 180.184 77.957 180.941C78.7461 181.691 79.1406 182.91 79.1406 184.598V193H76.8672C76.8594 192.969 76.7734 192.707 76.6094 192.215C76.4453 191.723 76.3633 191.461 76.3633 191.43C75.7227 192.055 75.0938 192.516 74.4766 192.812C73.8672 193.102 73.125 193.246 72.25 193.246ZM73.082 191.066C73.793 191.066 74.4102 190.898 74.9336 190.562C75.4648 190.219 75.8438 189.805 76.0703 189.32V186.836C76.0469 186.836 75.8398 186.852 75.4492 186.883C75.0664 186.914 74.8594 186.93 74.8281 186.93C73.5859 187.039 72.6758 187.273 72.0977 187.633C71.5195 187.992 71.2305 188.57 71.2305 189.367C71.2305 189.914 71.3906 190.336 71.7109 190.633C72.0312 190.922 72.4883 191.066 73.082 191.066ZM82.2461 193V180.121H84.8242L85.2227 182.09C86.0664 180.738 87.2891 180.062 88.8906 180.062C89.2266 180.062 89.5 180.078 89.7109 180.109L89.6641 182.676C89.3516 182.629 89.0273 182.605 88.6914 182.605C87.5586 182.605 86.7109 182.906 86.1484 183.508C85.5938 184.109 85.3164 184.945 85.3164 186.016V193H82.2461ZM94.0234 198.766L93.8477 196.281H95.4062C97.2109 196.281 98.4727 196.039 99.1914 195.555C99.9102 195.078 100.27 194.199 100.27 192.918C100.27 192.395 100.246 191.828 100.199 191.219C99.9961 191.5 99.8008 191.734 99.6133 191.922C99.4336 192.102 99.2031 192.281 98.9219 192.461C98.6484 192.641 98.3164 192.777 97.9258 192.871C97.543 192.957 97.1055 193 96.6133 193C94.9102 193 93.5078 192.387 92.4062 191.16C91.3125 189.934 90.7656 188.352 90.7656 186.414C90.7656 185.383 90.918 184.445 91.2227 183.602C91.5273 182.75 91.9414 182.051 92.4648 181.504C92.9883 180.957 93.5898 180.539 94.2695 180.25C94.957 179.953 95.6875 179.805 96.4609 179.805C98.1875 179.805 99.4727 180.434 100.316 181.691L100.527 180.121H103.27V192.086C103.27 192.727 103.238 193.301 103.176 193.809C103.113 194.324 103.004 194.816 102.848 195.285C102.691 195.762 102.484 196.176 102.227 196.527C101.977 196.879 101.66 197.199 101.277 197.488C100.895 197.777 100.441 198.012 99.918 198.191C99.4023 198.379 98.8008 198.52 98.1133 198.613C97.4258 198.715 96.6523 198.766 95.793 198.766H94.0234ZM97.1055 190.855C99.2227 190.855 100.293 189.438 100.316 186.602V186.156C100.301 184.883 100.035 183.898 99.5195 183.203C99.0039 182.508 98.25 182.156 97.2578 182.148C96.1328 182.148 95.2812 182.535 94.7031 183.309C94.125 184.074 93.8359 185.109 93.8359 186.414C93.8359 187.672 94.125 188.727 94.7031 189.578C95.2891 190.43 96.0898 190.855 97.1055 190.855ZM112.258 193.246C110.188 193.246 108.574 192.652 107.418 191.465C106.27 190.27 105.695 188.621 105.695 186.52C105.695 184.473 106.238 182.844 107.324 181.633C108.41 180.422 109.891 179.812 111.766 179.805C113.539 179.805 114.914 180.359 115.891 181.469C116.875 182.578 117.367 184.051 117.367 185.887C117.367 186.02 117.363 186.234 117.355 186.531C117.355 186.828 117.355 187.047 117.355 187.188H108.789C108.82 188.391 109.148 189.324 109.773 189.988C110.406 190.645 111.273 190.973 112.375 190.973C113.781 190.973 115.133 190.605 116.43 189.871L116.863 192.051C115.574 192.848 114.039 193.246 112.258 193.246ZM108.848 185.254H114.473C114.473 184.207 114.234 183.402 113.758 182.84C113.281 182.277 112.621 181.996 111.777 181.996C110.988 181.996 110.32 182.27 109.773 182.816C109.234 183.363 108.926 184.176 108.848 185.254ZM131.336 193.234C129.266 193.234 127.41 192.758 125.77 191.805L126.543 189.285C127.277 189.691 128.074 190.02 128.934 190.27C129.801 190.52 130.645 190.645 131.465 190.645C132.473 190.645 133.234 190.43 133.75 190C134.266 189.562 134.523 188.938 134.523 188.125C134.523 187.047 133.805 186.301 132.367 185.887C132.266 185.855 131.98 185.773 131.512 185.641C131.043 185.5 130.602 185.367 130.188 185.242C129.781 185.109 129.488 185.008 129.309 184.938C127.004 184.125 125.852 182.609 125.852 180.391C125.852 178.836 126.402 177.637 127.504 176.793C128.613 175.949 130.082 175.527 131.91 175.527C133.98 175.527 135.766 175.953 137.266 176.805L136.305 179.125C134.773 178.438 133.352 178.094 132.039 178.094C131.094 178.094 130.379 178.262 129.895 178.598C129.418 178.926 129.164 179.477 129.133 180.25C129.133 181.203 129.605 181.824 130.551 182.113C130.738 182.184 131.199 182.336 131.934 182.57C132.668 182.805 133.145 182.957 133.363 183.027C134.934 183.543 136.055 184.184 136.727 184.949C137.406 185.715 137.746 186.781 137.746 188.148C137.746 189.781 137.168 191.039 136.012 191.922C134.855 192.797 133.297 193.234 131.336 193.234ZM149.465 191.992C148.441 192.828 147.094 193.246 145.422 193.246C143.75 193.246 142.402 192.828 141.379 191.992C140.363 191.156 139.855 189.93 139.855 188.312V180.121H142.938V188.195C142.938 189.156 143.137 189.852 143.535 190.281C143.941 190.711 144.582 190.926 145.457 190.926C146.316 190.926 146.941 190.715 147.332 190.293C147.73 189.863 147.93 189.164 147.93 188.195V180.121H151V188.312C151 189.922 150.488 191.148 149.465 191.992ZM153.812 193V180.121H156.297L156.648 181.762C156.805 181.566 156.953 181.395 157.094 181.246C157.242 181.09 157.441 180.918 157.691 180.73C157.949 180.535 158.219 180.375 158.5 180.25C158.789 180.125 159.141 180.02 159.555 179.934C159.977 179.848 160.426 179.805 160.902 179.805C161.926 179.805 162.742 180.012 163.352 180.426C163.969 180.84 164.402 181.324 164.652 181.879C165.113 181.215 165.711 180.703 166.445 180.344C167.18 179.984 167.996 179.805 168.895 179.805C170.371 179.805 171.453 180.223 172.141 181.059C172.836 181.895 173.184 183.133 173.184 184.773V193H170.102V185.688C170.102 184.43 169.961 183.523 169.68 182.969C169.406 182.406 168.879 182.125 168.098 182.125C166.902 182.125 166.043 182.664 165.52 183.742C165.301 184.219 165.152 184.793 165.074 185.465V193H162.004V185.547C162.004 184.398 161.852 183.543 161.547 182.98C161.242 182.418 160.691 182.137 159.895 182.137C159.246 182.137 158.688 182.301 158.219 182.629C157.75 182.957 157.395 183.387 157.152 183.918C156.973 184.707 156.883 185.652 156.883 186.754V193H153.812ZM176.219 193V180.121H178.703L179.055 181.762C179.211 181.566 179.359 181.395 179.5 181.246C179.648 181.09 179.848 180.918 180.098 180.73C180.355 180.535 180.625 180.375 180.906 180.25C181.195 180.125 181.547 180.02 181.961 179.934C182.383 179.848 182.832 179.805 183.309 179.805C184.332 179.805 185.148 180.012 185.758 180.426C186.375 180.84 186.809 181.324 187.059 181.879C187.52 181.215 188.117 180.703 188.852 180.344C189.586 179.984 190.402 179.805 191.301 179.805C192.777 179.805 193.859 180.223 194.547 181.059C195.242 181.895 195.59 183.133 195.59 184.773V193H192.508V185.688C192.508 184.43 192.367 183.523 192.086 182.969C191.812 182.406 191.285 182.125 190.504 182.125C189.309 182.125 188.449 182.664 187.926 183.742C187.707 184.219 187.559 184.793 187.48 185.465V193H184.41V185.547C184.41 184.398 184.258 183.543 183.953 182.98C183.648 182.418 183.098 182.137 182.301 182.137C181.652 182.137 181.094 182.301 180.625 182.629C180.156 182.957 179.801 183.387 179.559 183.918C179.379 184.707 179.289 185.652 179.289 186.754V193H176.219ZM202.023 193.246C200.828 193.246 199.859 192.918 199.117 192.262C198.383 191.598 198.016 190.645 198.016 189.402C198.016 188.066 198.453 187.078 199.328 186.438C200.203 185.789 201.523 185.379 203.289 185.207C203.531 185.176 203.793 185.145 204.074 185.113C204.355 185.082 204.672 185.051 205.023 185.02C205.375 184.988 205.652 184.961 205.855 184.938V184.258C205.855 183.477 205.676 182.91 205.316 182.559C204.957 182.199 204.41 182.02 203.676 182.02C202.629 182.02 201.336 182.312 199.797 182.898C199.789 182.875 199.66 182.52 199.41 181.832C199.16 181.145 199.031 180.793 199.023 180.777C200.539 180.129 202.18 179.805 203.945 179.805C205.68 179.805 206.941 180.184 207.73 180.941C208.52 181.691 208.914 182.91 208.914 184.598V193H206.641C206.633 192.969 206.547 192.707 206.383 192.215C206.219 191.723 206.137 191.461 206.137 191.43C205.496 192.055 204.867 192.516 204.25 192.812C203.641 193.102 202.898 193.246 202.023 193.246ZM202.855 191.066C203.566 191.066 204.184 190.898 204.707 190.562C205.238 190.219 205.617 189.805 205.844 189.32V186.836C205.82 186.836 205.613 186.852 205.223 186.883C204.84 186.914 204.633 186.93 204.602 186.93C203.359 187.039 202.449 187.273 201.871 187.633C201.293 187.992 201.004 188.57 201.004 189.367C201.004 189.914 201.164 190.336 201.484 190.633C201.805 190.922 202.262 191.066 202.855 191.066ZM212.02 193V180.121H214.598L214.996 182.09C215.84 180.738 217.062 180.062 218.664 180.062C219 180.062 219.273 180.078 219.484 180.109L219.438 182.676C219.125 182.629 218.801 182.605 218.465 182.605C217.332 182.605 216.484 182.906 215.922 183.508C215.367 184.109 215.09 184.945 215.09 186.016V193H212.02ZM222.039 198.426C221.539 198.426 221.008 198.395 220.445 198.332L220.293 195.953C220.652 195.992 221.109 196.012 221.664 196.012C222.375 196.012 222.945 195.871 223.375 195.59C223.805 195.309 224.16 194.809 224.441 194.09C224.473 194.012 224.629 193.57 224.91 192.766L219.73 180.121H223.012L226.398 189.461C226.648 188.531 227.207 186.805 228.074 184.281C228.949 181.758 229.43 180.371 229.516 180.121H232.797C229.227 189.559 227.426 194.316 227.395 194.395C226.84 195.84 226.141 196.871 225.297 197.488C224.453 198.113 223.367 198.426 222.039 198.426ZM248.746 193.246C246.129 193.246 244.082 192.457 242.605 190.879C241.137 189.301 240.402 187.141 240.402 184.398C240.402 182.656 240.746 181.125 241.434 179.805C242.121 178.477 243.133 177.441 244.469 176.699C245.805 175.957 247.383 175.586 249.203 175.586C251.289 175.586 253.078 176.035 254.57 176.934L253.539 179.301C252.117 178.535 250.691 178.152 249.262 178.152C247.527 178.152 246.164 178.715 245.172 179.84C244.18 180.965 243.684 182.496 243.684 184.434C243.684 186.355 244.125 187.875 245.008 188.992C245.891 190.109 247.184 190.668 248.887 190.668C249.98 190.668 250.973 190.496 251.863 190.152V186.168H248.266L248.289 183.672H254.852V191.957C253.789 192.395 252.781 192.719 251.828 192.93C250.883 193.141 249.855 193.246 248.746 193.246ZM263.922 193.246C261.852 193.246 260.238 192.652 259.082 191.465C257.934 190.27 257.359 188.621 257.359 186.52C257.359 184.473 257.902 182.844 258.988 181.633C260.074 180.422 261.555 179.812 263.43 179.805C265.203 179.805 266.578 180.359 267.555 181.469C268.539 182.578 269.031 184.051 269.031 185.887C269.031 186.02 269.027 186.234 269.02 186.531C269.02 186.828 269.02 187.047 269.02 187.188H260.453C260.484 188.391 260.812 189.324 261.438 189.988C262.07 190.645 262.938 190.973 264.039 190.973C265.445 190.973 266.797 190.605 268.094 189.871L268.527 192.051C267.238 192.848 265.703 193.246 263.922 193.246ZM260.512 185.254H266.137C266.137 184.207 265.898 183.402 265.422 182.84C264.945 182.277 264.285 181.996 263.441 181.996C262.652 181.996 261.984 182.27 261.438 182.816C260.898 183.363 260.59 184.176 260.512 185.254ZM271.539 193V180.121H274.012L274.352 181.75C275.664 180.453 277.121 179.805 278.723 179.805C280.223 179.805 281.344 180.238 282.086 181.105C282.836 181.965 283.211 183.215 283.211 184.855V193H280.129V185.23C280.121 184.191 279.953 183.414 279.625 182.898C279.297 182.383 278.707 182.125 277.855 182.125C277.191 182.125 276.582 182.297 276.027 182.641C275.48 182.977 275.082 183.402 274.832 183.918C274.684 184.527 274.609 185.465 274.609 186.73V193H271.539ZM292.188 193.246C290.117 193.246 288.504 192.652 287.348 191.465C286.199 190.27 285.625 188.621 285.625 186.52C285.625 184.473 286.168 182.844 287.254 181.633C288.34 180.422 289.82 179.812 291.695 179.805C293.469 179.805 294.844 180.359 295.82 181.469C296.805 182.578 297.297 184.051 297.297 185.887C297.297 186.02 297.293 186.234 297.285 186.531C297.285 186.828 297.285 187.047 297.285 187.188H288.719C288.75 188.391 289.078 189.324 289.703 189.988C290.336 190.645 291.203 190.973 292.305 190.973C293.711 190.973 295.062 190.605 296.359 189.871L296.793 192.051C295.504 192.848 293.969 193.246 292.188 193.246ZM288.777 185.254H294.402C294.402 184.207 294.164 183.402 293.688 182.84C293.211 182.277 292.551 181.996 291.707 181.996C290.918 181.996 290.25 182.27 289.703 182.816C289.164 183.363 288.855 184.176 288.777 185.254ZM299.816 193V180.121H302.395L302.793 182.09C303.637 180.738 304.859 180.062 306.461 180.062C306.797 180.062 307.07 180.078 307.281 180.109L307.234 182.676C306.922 182.629 306.598 182.605 306.262 182.605C305.129 182.605 304.281 182.906 303.719 183.508C303.164 184.109 302.887 184.945 302.887 186.016V193H299.816ZM312.461 193.246C311.266 193.246 310.297 192.918 309.555 192.262C308.82 191.598 308.453 190.645 308.453 189.402C308.453 188.066 308.891 187.078 309.766 186.438C310.641 185.789 311.961 185.379 313.727 185.207C313.969 185.176 314.23 185.145 314.512 185.113C314.793 185.082 315.109 185.051 315.461 185.02C315.812 184.988 316.09 184.961 316.293 184.938V184.258C316.293 183.477 316.113 182.91 315.754 182.559C315.395 182.199 314.848 182.02 314.113 182.02C313.066 182.02 311.773 182.312 310.234 182.898C310.227 182.875 310.098 182.52 309.848 181.832C309.598 181.145 309.469 180.793 309.461 180.777C310.977 180.129 312.617 179.805 314.383 179.805C316.117 179.805 317.379 180.184 318.168 180.941C318.957 181.691 319.352 182.91 319.352 184.598V193H317.078C317.07 192.969 316.984 192.707 316.82 192.215C316.656 191.723 316.574 191.461 316.574 191.43C315.934 192.055 315.305 192.516 314.688 192.812C314.078 193.102 313.336 193.246 312.461 193.246ZM313.293 191.066C314.004 191.066 314.621 190.898 315.145 190.562C315.676 190.219 316.055 189.805 316.281 189.32V186.836C316.258 186.836 316.051 186.852 315.66 186.883C315.277 186.914 315.07 186.93 315.039 186.93C313.797 187.039 312.887 187.273 312.309 187.633C311.73 187.992 311.441 188.57 311.441 189.367C311.441 189.914 311.602 190.336 311.922 190.633C312.242 190.922 312.699 191.066 313.293 191.066ZM327.59 193.176C326.715 193.176 325.984 193.074 325.398 192.871C324.82 192.66 324.367 192.332 324.039 191.887C323.711 191.441 323.477 190.918 323.336 190.316C323.203 189.707 323.137 188.957 323.137 188.066V181.984H321.027L321.145 180.32L323.348 180.121L324.332 176.629L326.207 176.617V180.121H329.406V181.984H326.207V188.125C326.207 189.102 326.348 189.797 326.629 190.211C326.91 190.625 327.43 190.832 328.188 190.832C328.633 190.832 329.109 190.793 329.617 190.715L329.699 192.918C329.684 192.918 329.586 192.938 329.406 192.977C329.234 193.008 329.066 193.035 328.902 193.059C328.746 193.09 328.543 193.117 328.293 193.141C328.043 193.164 327.809 193.176 327.59 193.176ZM337.363 190.914C338.402 190.914 339.184 190.535 339.707 189.777C340.23 189.02 340.492 187.934 340.492 186.52C340.492 185.09 340.23 184 339.707 183.25C339.184 182.5 338.395 182.125 337.34 182.125C336.301 182.125 335.516 182.504 334.984 183.262C334.461 184.012 334.199 185.102 334.199 186.531C334.199 187.938 334.465 189.02 334.996 189.777C335.527 190.535 336.316 190.914 337.363 190.914ZM337.281 193.246C335.375 193.246 333.875 192.629 332.781 191.395C331.688 190.16 331.141 188.535 331.141 186.52C331.141 184.441 331.688 182.805 332.781 181.609C333.875 180.406 335.418 179.805 337.41 179.805C339.332 179.805 340.836 180.418 341.922 181.645C343.016 182.863 343.562 184.488 343.562 186.52C343.562 188.574 343.012 190.211 341.91 191.43C340.809 192.641 339.266 193.246 337.281 193.246ZM346.082 193V180.121H348.66L349.059 182.09C349.902 180.738 351.125 180.062 352.727 180.062C353.062 180.062 353.336 180.078 353.547 180.109L353.5 182.676C353.188 182.629 352.863 182.605 352.527 182.605C351.395 182.605 350.547 182.906 349.984 183.508C349.43 184.109 349.152 184.945 349.152 186.016V193H346.082Z" fill="black"/>
<rect x="367" y="161" width="45" height="45" rx="10" fill="#01A5A5"/>
<path d="M376.492 192.091C375.789 192.091 375.56 191.769 375.804 191.124L382.981 172.272C383.284 171.481 383.743 171.085 384.358 171.085H386.409C387.024 171.085 387.483 171.481 387.786 172.272L394.964 191.124C395.208 191.769 394.979 192.091 394.275 192.091H391.946C391.302 192.091 390.853 191.754 390.599 191.08L389.105 187.14H381.663L380.169 191.08C379.915 191.754 379.466 192.091 378.821 192.091H376.492ZM383.025 183.507H387.742L385.94 178.849C385.726 178.302 385.594 177.906 385.545 177.662C385.506 177.408 385.462 177.037 385.413 176.549H385.355C385.306 177.037 385.257 177.408 385.208 177.662C385.169 177.906 385.042 178.302 384.827 178.849L383.025 183.507ZM398.597 192.091C397.913 192.091 397.571 191.725 397.571 190.992V172.184C397.571 171.451 397.913 171.085 398.597 171.085H400.823C401.507 171.085 401.849 171.451 401.849 172.184V190.992C401.849 191.725 401.507 192.091 400.823 192.091H398.597Z" fill="white"/>
</svg>
