<svg version="1.1" id="Layer_1" xmlns="http://www.w3.org/2000/svg" xmlns:xlink="http://www.w3.org/1999/xlink" x="0px" y="0px"
	 width="100%" viewBox="0 0 672 1024" enable-background="new 0 0 672 1024" xml:space="preserve">
<path fill="#000000" opacity="1.000000" stroke="none" 
	d="
M158.400635,532.513916 
	C155.123978,532.750000 152.303513,533.062561 149.482590,533.066650 
	C124.994957,533.102112 100.507256,533.086121 76.019577,533.070068 
	C74.219482,533.068848 72.350456,533.364868 70.436211,532.102173 
	C70.462715,528.065491 72.714256,524.634277 74.114624,521.037659 
	C91.810799,475.588684 109.666092,430.201660 127.380615,384.759766 
	C128.517029,381.844574 130.006241,380.600250 133.200958,380.613464 
	C159.353973,380.721588 185.513443,380.369873 211.658279,380.849243 
	C223.480377,381.066010 235.124115,383.485596 245.964462,388.707825 
	C266.282532,398.495880 276.023163,417.719116 271.687408,439.851135 
	C266.867584,464.454102 253.003067,483.725647 235.030228,500.285248 
	C215.200272,518.555847 191.666763,529.074524 164.839142,532.104370 
	C162.857300,532.328125 160.851334,532.338013 158.400635,532.513916 
M195.859268,407.707642 
	C186.878983,407.596771 177.893188,407.635071 168.921112,407.302704 
	C165.266235,407.167358 163.624008,408.688812 162.356415,411.917694 
	C150.990814,440.868744 139.485825,469.765045 128.044373,498.686371 
	C127.394081,500.330200 126.300964,501.917511 126.830292,503.753723 
	C128.013123,504.984192 129.421768,504.652344 130.700623,504.622711 
	C140.497833,504.395752 150.272812,504.757721 160.097717,503.850952 
	C191.428726,500.959320 222.657806,473.874146 228.197739,442.994141 
	C231.167984,426.437897 227.912155,415.228027 207.062454,409.594574 
	C203.712906,408.689575 200.178925,408.467163 195.859268,407.707642 
z"/>
<path fill="#000000" opacity="1.000000" stroke="none" 
	d="
M513.222290,471.068848 
	C510.804626,470.928009 508.751709,471.513977 506.691315,470.133087 
	C506.616058,466.518646 509.023834,463.763245 510.640686,460.835205 
	C513.530396,455.602142 514.796692,448.513458 519.618591,445.564758 
	C524.450378,442.610046 531.326477,444.739838 537.300842,444.690918 
	C551.797852,444.572205 566.296631,444.640442 580.794495,444.679962 
	C582.752991,444.685303 584.795105,444.267212 586.603516,445.314087 
	C587.264526,446.581940 586.633728,447.624054 586.198792,448.694427 
	C577.925171,469.057220 569.615234,489.405365 561.421509,509.800262 
	C560.248169,512.720947 558.492004,514.832031 555.899414,516.597168 
	C538.137024,528.690491 518.010620,533.719910 497.062531,535.134033 
	C479.463104,536.322144 461.777435,536.122131 444.864929,529.394287 
	C423.087891,520.731262 411.532928,500.631134 415.389374,477.522888 
	C424.078796,425.454834 465.342957,384.574310 517.567688,377.155334 
	C541.572510,373.745209 565.049622,376.641327 587.240540,387.042450 
	C594.366882,390.382690 594.282837,390.600250 589.967468,397.036194 
	C585.421021,403.816833 580.782227,410.537750 576.361389,417.399170 
	C574.614014,420.111176 573.065125,420.304626 570.292542,418.670807 
	C526.817261,393.051147 473.407043,415.097534 461.342896,469.746246 
	C460.517639,473.484558 459.908875,477.260193 460.620300,481.125916 
	C463.236481,495.341064 470.617950,502.010864 485.872864,503.614624 
	C498.517395,504.943909 510.776978,503.273773 522.618958,498.540222 
	C525.745605,497.290436 527.809143,495.423157 529.014832,492.122437 
	C531.506104,485.302490 534.418030,478.636261 537.498291,471.068054 
	C528.929932,471.068054 521.309021,471.068054 513.222290,471.068848 
z"/>
<path fill="#000000" opacity="1.000000" stroke="none" 
	d="
M304.572235,398.563843 
	C319.709656,384.122253 338.271912,378.675690 358.007141,377.029327 
	C381.366608,375.080658 404.146881,378.658905 426.157440,386.818024 
	C432.159515,389.042938 432.300537,389.577667 428.722229,394.663879 
	C424.506042,400.656799 420.173248,406.572296 416.122467,412.675018 
	C414.151703,415.644073 412.341583,416.572174 408.771698,414.938507 
	C392.586975,407.532074 375.421509,404.882141 357.737518,405.387939 
	C352.218658,405.545807 346.869171,406.806152 341.899475,409.381989 
	C337.779724,411.517273 334.668304,414.780640 334.659882,419.411469 
	C334.651794,423.856598 337.796844,427.003174 341.647400,429.089508 
	C350.916718,434.111816 360.996918,437.123993 370.857056,440.670624 
	C375.874329,442.475342 380.859436,444.323914 385.547424,446.904938 
	C402.997131,456.512177 408.183716,471.392639 400.573151,489.937469 
	C392.231781,510.262939 376.206360,522.038940 356.223724,528.863403 
	C336.034241,535.758545 315.223175,536.713562 294.122101,533.753296 
	C280.205811,531.800903 266.620911,528.835388 253.805664,522.927917 
	C251.603897,521.912964 249.066483,521.289062 247.359680,518.463623 
	C254.195328,508.826172 261.536377,499.429016 269.556427,490.566406 
	C271.572998,488.338013 273.568024,490.220581 275.418732,491.120300 
	C292.595154,499.470886 310.577454,504.360016 329.818634,503.679138 
	C338.312195,503.378601 346.290344,501.197662 353.116058,495.903717 
	C360.174805,490.429077 361.470917,481.919586 351.329987,477.099304 
	C338.517609,471.009186 325.136261,466.360992 311.931458,461.359283 
	C284.102509,450.818237 283.019135,429.039185 296.849609,407.517120 
	C298.932831,404.275391 301.557861,401.482269 304.572235,398.563843 
z"/>
<path fill="#000000" opacity="1.000000" stroke="none" 
	d="
M584.091553,539.369019 
	C584.037598,528.445862 583.961243,517.964783 584.039551,507.484802 
	C584.089417,500.806122 586.174133,498.737000 592.652893,498.710754 
	C602.967468,498.668976 613.282715,498.655273 623.596985,498.729706 
	C629.843567,498.774780 632.181580,501.014771 632.226013,507.039246 
	C632.302185,517.353394 632.296265,527.668945 632.215271,537.983032 
	C632.169006,543.877625 629.924744,546.185242 624.060730,546.239136 
	C613.414185,546.336975 602.765930,546.236938 592.118591,546.268860 
	C587.656189,546.282227 584.804321,544.427002 584.091553,539.369019 
M611.438171,527.891174 
	C609.815552,523.350037 608.203308,518.805176 606.564758,514.269775 
	C605.962463,512.602661 605.023987,511.321564 602.985718,511.386169 
	C601.087708,511.446350 600.576660,512.823364 600.043091,514.282654 
	C598.843384,517.563171 597.495422,520.791565 596.364319,524.094666 
	C595.006348,528.060059 593.026123,531.868042 592.360596,537.055786 
	C597.101318,535.441345 597.562012,530.274719 603.268982,529.873413 
	C609.655518,529.424255 608.731567,537.233032 614.577087,536.381531 
	C613.507202,533.482422 612.608643,531.047546 611.438171,527.891174 
M619.988159,535.968506 
	C622.710327,537.140503 622.767151,535.132080 622.779724,533.463928 
	C622.828796,526.977051 622.783081,520.489136 622.732788,514.001953 
	C622.723267,512.775818 622.401611,511.657745 619.589539,511.603363 
	C618.984253,519.468933 619.132324,527.402710 619.988159,535.968506 
z"/>
<path fill="#000000" opacity="1.000000" stroke="none" 
	d="
M317.308960,576.720337 
	C317.284729,579.798035 317.305542,582.458069 317.254944,585.116760 
	C317.223114,586.788086 317.284790,588.717834 314.891602,588.720398 
	C312.461517,588.723022 311.981781,586.924011 311.959320,584.930664 
	C311.927490,582.105408 311.979004,579.278076 311.888245,576.455017 
	C311.828674,574.602905 311.691376,572.521729 309.225098,572.378479 
	C306.742615,572.234314 305.628784,574.072021 305.450928,576.186462 
	C305.186859,579.325256 305.306702,582.495422 305.235992,585.651672 
	C305.200317,587.246704 304.911774,588.757141 302.852325,588.729248 
	C301.069458,588.705139 300.033173,587.615417 300.017181,585.898315 
	C299.967682,580.583618 300.007965,575.267273 300.092712,569.952881 
	C300.112671,568.701172 300.892487,567.314148 302.134491,567.572998 
	C306.148956,568.409668 310.424072,565.509399 314.204865,568.393372 
	C315.815582,569.622070 316.863892,568.581970 318.225952,567.973938 
	C323.869263,565.454468 328.753937,568.288940 329.199097,574.440979 
	C329.462311,578.079224 329.279999,581.750671 329.273926,585.407166 
	C329.270935,587.193420 328.990417,588.891479 326.633881,588.720520 
	C324.526184,588.567627 323.961151,587.034973 323.943695,585.196777 
	C323.918427,582.537537 323.995300,579.874390 323.874573,577.219971 
	C323.779968,575.141357 324.218323,572.350098 321.269287,572.082703 
	C318.742859,571.853638 317.558502,573.868896 317.308960,576.720337 
z"/>
<path fill="#000000" opacity="1.000000" stroke="none" 
	d="
M343.023560,566.997437 
	C346.588165,567.845520 349.389008,569.191162 353.139893,567.395142 
	C356.541687,565.766296 360.021484,567.843689 361.252625,571.848145 
	C362.698029,576.549316 361.980011,581.410583 361.844330,586.210083 
	C361.802063,587.704834 360.906616,588.740173 359.307129,588.712708 
	C357.409546,588.680176 356.777649,587.408081 356.761627,585.706421 
	C356.735077,582.881592 356.745087,580.056091 356.692841,577.231812 
	C356.648773,574.852600 356.591461,571.995178 353.451874,572.075195 
	C350.513184,572.150269 350.173126,574.924988 350.095154,577.339478 
	C350.009338,579.996277 350.053528,582.657227 349.975128,585.314392 
	C349.922577,587.096375 349.472382,588.766541 347.251801,588.725342 
	C344.979279,588.683289 344.753540,586.934937 344.736755,585.179016 
	C344.708099,582.187927 344.712585,579.196411 344.689880,576.205200 
	C344.674988,574.246704 344.253479,572.280090 341.973480,572.119141 
	C339.512604,571.945435 338.476135,573.905396 338.299774,576.008118 
	C338.050354,578.981201 338.158447,581.983398 338.088379,584.972595 
	C338.042725,586.919983 337.738220,588.801819 335.190735,588.706909 
	C332.913086,588.622131 332.734070,586.844727 332.725708,585.106995 
	C332.703369,580.453918 332.757721,575.800049 332.692535,571.147705 
	C332.650879,568.175659 333.762543,566.469910 336.861786,567.645935 
	C339.051270,568.476685 340.697388,566.818909 343.023560,566.997437 
z"/>
<path fill="#000000" opacity="1.000000" stroke="none" 
	d="
M70.359718,588.972351 
	C67.325836,588.571167 66.862022,586.749329 66.869202,584.565613 
	C66.891655,577.737976 66.940605,570.910034 66.887825,564.082947 
	C66.863373,560.920532 68.225029,559.481567 71.428886,559.719299 
	C73.251633,559.854553 75.105606,559.630188 76.918915,559.820923 
	C86.133369,560.789673 89.594391,565.390869 89.325287,576.167786 
	C89.134010,583.828308 84.461594,588.462036 76.297600,589.000916 
	C74.474045,589.121216 72.635811,589.019165 70.359718,588.972351 
M76.996353,583.608765 
	C84.365112,581.217773 86.902084,572.081116 81.587372,567.091003 
	C79.425560,565.061157 76.782150,564.680847 74.123909,565.412842 
	C71.448463,566.149536 72.362083,568.665527 72.288773,570.520203 
	C72.163811,573.681396 72.354988,576.854675 72.242249,580.016785 
	C72.139420,582.900940 73.505234,583.944336 76.996353,583.608765 
z"/>
<path fill="#000000" opacity="1.000000" stroke="none" 
	d="
M447.302124,578.221558 
	C445.058960,578.054626 442.942963,577.949829 443.117889,575.375000 
	C443.291840,572.814392 445.564392,572.932556 447.327301,573.016052 
	C449.864838,573.136292 453.242157,571.747498 454.666992,574.504883 
	C456.242249,577.553223 455.354309,581.005249 453.443481,583.974915 
	C449.279175,590.446716 439.039734,590.838440 434.024872,584.722717 
	C429.947754,579.750610 429.539276,570.323059 433.168762,564.962830 
	C437.571381,558.460754 448.055817,557.877808 452.583496,563.945312 
	C453.514160,565.192505 455.078918,566.733459 453.432709,568.298828 
	C452.069702,569.594910 450.407196,569.000732 448.899597,567.931335 
	C443.713593,564.252686 440.458954,564.290344 437.851929,567.943787 
	C434.981384,571.966553 435.760925,580.017029 439.479492,582.573914 
	C442.364197,584.557434 445.487366,584.641357 448.081238,581.997437 
	C449.155396,580.902527 450.540497,579.188660 447.302124,578.221558 
z"/>
<path fill="#000000" opacity="1.000000" stroke="none" 
	d="
M211.391205,591.421570 
	C212.698883,590.166016 213.857132,589.151978 213.114029,587.042725 
	C208.380646,588.856567 203.959076,588.588562 200.861664,584.039978 
	C198.193893,580.122314 198.026382,575.911072 200.358719,571.768311 
	C202.461807,568.032654 205.630905,566.329956 209.977997,567.402466 
	C210.622437,567.561523 211.340805,568.136108 211.860641,567.977966 
	C220.020035,565.496338 218.287506,571.358643 218.340103,575.639099 
	C218.395325,580.133850 218.519592,584.638306 218.299805,589.123108 
	C218.076263,593.684631 215.100143,596.333618 210.082794,596.944946 
	C205.165039,597.544128 201.586426,595.422241 200.128754,590.889526 
	C203.994629,587.924744 207.314560,594.697876 211.391205,591.421570 
M212.839340,580.279480 
	C214.311829,576.849792 213.502045,574.059631 210.135910,572.457275 
	C208.145798,571.509949 206.108017,572.261414 205.044128,574.230164 
	C203.604477,576.894348 203.539322,579.795105 205.873199,581.939148 
	C208.241287,584.114624 210.678101,583.588867 212.839340,580.279480 
z"/>
<path fill="#000000" opacity="1.000000" stroke="none" 
	d="
M264.279236,584.544739 
	C267.064362,584.361816 269.577148,583.937866 269.635101,580.898193 
	C269.687317,578.158691 267.202789,577.699158 265.139954,577.018311 
	C262.936768,576.291199 260.600800,575.773987 258.599335,574.665771 
	C253.414597,571.794922 253.286636,564.753113 258.207703,561.456909 
	C263.076843,558.195435 271.025238,559.407532 273.932861,563.912048 
	C274.724243,565.138000 275.899750,566.659790 274.598145,567.969910 
	C273.247620,569.329163 271.407104,568.934631 270.144440,567.589905 
	C268.858368,566.220215 267.559692,564.936890 265.681305,564.601257 
	C263.322296,564.179871 261.223053,564.837158 260.492645,567.299377 
	C259.793671,569.655518 261.679169,570.446716 263.487732,571.085144 
	C265.991699,571.969055 268.544434,572.741638 270.980103,573.786133 
	C274.717346,575.388916 276.021423,578.405396 275.363861,582.316711 
	C274.680573,586.381104 270.996735,588.989319 265.666931,589.255188 
	C260.122009,589.531799 255.207550,586.887085 254.184372,583.112732 
	C253.903992,582.078552 253.769897,581.072205 254.872620,580.518066 
	C256.168915,579.866882 257.588837,580.004150 258.605927,580.980713 
	C260.180145,582.492310 261.689270,584.011597 264.279236,584.544739 
z"/>
<path fill="#000000" opacity="1.000000" stroke="none" 
	d="
M148.258820,575.858398 
	C148.131317,579.086975 148.094131,581.907837 147.992523,584.726379 
	C147.925674,586.580811 147.881210,588.725830 145.351212,588.726440 
	C142.407532,588.727173 142.698395,586.306763 142.690491,584.343079 
	C142.663727,577.704224 142.651276,571.064758 142.719650,564.426392 
	C142.739136,562.533936 142.266296,560.004456 145.275360,559.980652 
	C148.155670,559.957825 147.887589,562.398132 148.111115,564.343384 
	C148.203522,565.147522 148.377014,565.942322 148.481995,566.556396 
	C150.053375,567.909058 151.559067,566.929565 152.982376,566.977417 
	C156.527664,567.096802 159.133011,568.643005 160.185211,572.033081 
	C161.637131,576.710938 161.259628,581.562195 160.909805,586.366333 
	C160.798447,587.895447 159.833298,588.773499 158.245148,588.705261 
	C156.665802,588.637451 155.814407,587.718750 155.778778,586.159851 
	C155.710556,583.173828 155.677460,580.186340 155.685272,577.199524 
	C155.691223,574.920715 155.420227,572.622192 152.884308,571.966064 
	C150.210800,571.274292 149.086792,573.283875 148.258820,575.858398 
z"/>
<path fill="#000000" opacity="1.000000" stroke="none" 
	d="
M517.135803,579.621338 
	C515.108337,579.546021 513.450012,579.410828 511.792938,579.424927 
	C510.352692,579.437134 508.647491,578.984497 507.777130,580.638916 
	C507.242432,581.655212 507.876404,582.559204 508.690613,583.225769 
	C510.041748,584.331848 511.498322,584.995911 513.265259,584.160767 
	C515.405518,583.149048 517.294556,581.019043 520.262390,582.629578 
	C520.447510,586.721375 517.361023,587.851990 514.434937,588.780029 
	C508.921753,590.528687 503.300842,587.133362 501.775665,581.384338 
	C500.107910,575.097961 503.276764,568.869324 508.881897,567.416260 
	C514.286560,566.015198 519.520386,569.297241 520.949829,574.988953 
	C521.689026,577.932129 521.259155,580.015930 517.135803,579.621338 
M513.893188,572.969177 
	C511.211456,571.661011 509.125000,571.888245 508.161774,575.073303 
	C510.240906,574.492065 513.560730,578.336243 513.893188,572.969177 
z"/>
<path fill="#000000" opacity="1.000000" stroke="none" 
	d="
M467.225891,567.036377 
	C472.964172,567.140137 476.178406,569.759155 477.591827,574.977600 
	C478.604553,578.716614 477.057007,579.884949 473.687012,579.795410 
	C472.694519,579.769043 471.704956,579.566406 470.713898,579.565186 
	C468.637085,579.562561 466.264740,578.638611 464.771179,580.854309 
	C464.144653,581.783752 464.872894,582.732422 465.696655,583.409485 
	C467.733704,585.083618 469.621185,584.505493 471.599182,583.188416 
	C473.145538,582.158752 474.857483,581.461731 476.868805,582.942322 
	C476.730865,586.766602 473.843933,588.103577 470.823944,588.908386 
	C466.777618,589.986694 463.252869,588.700317 460.623169,585.410950 
	C455.162506,578.580322 458.124359,569.895020 467.225891,567.036377 
M464.689178,574.446350 
	C466.928864,576.541626 469.131805,575.923401 471.772980,574.463257 
	C469.355682,571.624512 467.188843,571.194885 464.689178,574.446350 
z"/>
<path fill="#000000" opacity="1.000000" stroke="none" 
	d="
M169.097916,567.798401 
	C177.668213,566.014221 181.550034,568.916565 182.085693,577.088928 
	C182.096542,577.254639 182.093155,577.421265 182.100647,577.587280 
	C182.617493,589.032166 181.961716,589.732544 170.838974,588.937378 
	C167.357193,588.688477 164.720444,587.015686 164.242813,583.307983 
	C163.772858,579.659790 165.506332,577.461914 169.127777,576.328247 
	C171.329803,575.638977 173.805618,576.308533 176.150665,574.640930 
	C173.473465,568.317688 168.309189,575.726685 165.208420,572.508606 
	C164.703735,569.803162 166.954468,569.046631 169.097916,567.798401 
M170.528351,583.958679 
	C174.234573,585.000305 175.558136,583.255493 175.579681,579.958740 
	C173.388092,580.703247 169.303497,578.668335 170.528351,583.958679 
z"/>
<path fill="#000000" opacity="1.000000" stroke="none" 
	d="
M552.759644,569.275269 
	C557.000610,574.948120 554.824402,581.083191 555.120422,586.912964 
	C555.164612,587.784302 554.321350,588.835388 553.630676,588.578857 
	C549.863464,587.179871 546.154419,589.776184 542.452576,588.588684 
	C539.411926,587.613464 537.816162,585.451904 537.781738,582.289246 
	C537.748413,579.224426 539.496765,577.601562 542.313110,576.531128 
	C544.587463,575.666687 547.273865,576.273010 549.545532,574.565125 
	C546.773499,568.110657 541.936401,575.803711 538.944153,572.616699 
	C539.911072,566.881714 545.395081,565.374329 552.759644,569.275269 
M547.530884,579.624756 
	C545.868469,580.477051 542.735718,580.002136 543.704895,583.304871 
	C544.143494,584.799622 545.769470,584.865967 546.994019,584.059265 
	C548.624329,582.985413 551.133118,581.949463 547.530884,579.624756 
z"/>
<path fill="#000000" opacity="1.000000" stroke="none" 
	d="
M235.878571,582.717102 
	C237.506699,582.226562 238.802597,581.846008 239.883438,583.175354 
	C240.334808,584.919800 239.117950,585.911194 238.035858,586.892090 
	C234.784180,589.839966 229.931335,590.050110 226.061813,587.473633 
	C221.939972,584.729126 220.350372,578.904175 222.283997,573.630249 
	C223.870102,569.304077 227.988968,566.646118 232.362656,567.126343 
	C236.726486,567.605469 240.208313,571.041077 241.030716,575.537354 
	C241.485703,578.024780 240.727615,579.266663 238.045349,579.407898 
	C234.646957,579.586975 231.153214,578.751343 227.796692,579.983948 
	C229.074799,585.022888 230.519775,585.516113 235.878571,582.717102 
M230.105789,575.682556 
	C231.740601,575.383301 233.693832,576.459167 235.194702,574.369812 
	C233.465973,572.026794 231.353165,571.421936 228.939911,573.022827 
	C227.651413,573.877625 227.209320,575.152954 230.105789,575.682556 
z"/>
<path fill="#000000" opacity="1.000000" stroke="none" 
	d="
M368.754700,573.287720 
	C365.329102,573.084167 365.456696,571.454895 367.024811,569.737061 
	C369.651001,566.859924 373.104767,566.512573 376.673920,567.425720 
	C380.080811,568.297424 382.100647,570.526794 382.289764,574.149658 
	C382.376282,575.807434 382.345917,577.471680 382.350861,579.133118 
	C382.381897,589.530823 382.000824,589.932312 371.748688,588.926514 
	C368.083954,588.566956 365.319000,586.632019 364.986084,582.776123 
	C364.666840,579.078552 367.034027,577.197388 370.456512,576.135620 
	C372.591034,575.473450 375.154297,576.476318 377.180664,574.470093 
	C374.942474,569.965759 371.877502,572.724915 368.754700,573.287720 
M376.429535,579.715942 
	C375.624664,579.786133 374.788422,579.741699 374.021851,579.951721 
	C372.642731,580.329407 370.900055,580.295654 370.555695,582.221680 
	C370.392487,583.134338 370.879852,583.856567 371.701202,584.214355 
	C373.545288,585.017883 374.891571,583.986023 376.112549,582.816833 
	C376.853241,582.107666 377.257477,581.200989 376.429535,579.715942 
z"/>
<path fill="#000000" opacity="1.000000" stroke="none" 
	d="
M585.728638,567.947693 
	C591.022400,571.894165 592.806519,576.895264 590.974792,582.556396 
	C589.748047,586.347656 587.051575,588.694519 583.003296,589.156494 
	C579.038818,589.608826 575.633118,588.331909 573.575012,584.859985 
	C570.895630,580.339966 570.923096,575.559448 573.887695,571.186523 
	C576.677490,567.071411 580.757202,566.284119 585.728638,567.947693 
M580.822205,584.428528 
	C584.608826,584.938965 585.867737,582.327209 586.383301,579.449341 
	C586.869690,576.733704 586.142578,574.048035 583.437073,572.655518 
	C581.710144,571.766602 579.741272,571.966736 578.486023,573.653198 
	C576.504456,576.315491 576.841919,579.283508 578.053406,582.126343 
	C578.404297,582.949829 579.436340,583.483093 580.822205,584.428528 
z"/>
<path fill="#000000" opacity="1.000000" stroke="none" 
	d="
M493.686829,582.896973 
	C493.668091,580.276794 493.680542,578.110352 493.623077,575.945679 
	C493.569122,573.914490 492.698273,572.223145 490.628448,571.879333 
	C488.206573,571.477112 486.742981,573.258240 486.424286,575.266052 
	C485.932434,578.365295 486.083862,581.563171 485.893311,584.715088 
	C485.783752,586.527527 485.871643,588.728638 483.255768,588.716187 
	C480.635925,588.703796 480.713196,586.561035 480.703705,584.706299 
	C480.680664,580.207947 480.724121,575.709290 480.691650,571.211060 
	C480.673859,568.741516 481.598358,567.411743 484.286591,567.813477 
	C485.252655,567.957825 486.273041,568.082947 487.223633,567.932556 
	C495.559387,566.613831 498.555542,568.901062 499.070587,577.220215 
	C499.224701,579.709290 499.119415,582.217224 499.069214,584.715210 
	C499.031647,586.583801 498.995178,588.658203 496.421112,588.714294 
	C493.829651,588.770752 493.712646,586.776672 493.701721,584.850891 
	C493.698914,584.351074 493.692322,583.851257 493.686829,582.896973 
z"/>
<path fill="#000000" opacity="1.000000" stroke="none" 
	d="
M416.909698,573.749878 
	C414.759308,579.570801 412.784821,585.028625 410.753601,590.465332 
	C409.567383,593.640259 407.473419,595.839966 403.924805,596.201782 
	C402.769592,596.319458 401.516907,596.310669 401.070953,594.859558 
	C400.679321,593.585022 401.044739,592.435730 402.292572,591.965271 
	C406.665436,590.316284 405.446503,587.359009 404.390411,584.205505 
	C402.667969,579.062073 400.266174,574.112488 399.167450,567.609070 
	C407.715424,568.740784 404.835693,577.079895 409.159119,580.534363 
	C410.178528,577.707153 411.187256,574.798462 412.278595,571.921204 
	C413.024231,569.955322 413.528656,567.145691 416.414032,568.023682 
	C419.830017,569.063110 417.232666,571.516846 416.909698,573.749878 
z"/>
<path fill="#000000" opacity="1.000000" stroke="none" 
	d="
M116.639526,573.531616 
	C113.411507,573.907776 110.602470,569.034607 107.496635,573.314941 
	C108.764206,576.275879 111.721718,575.752136 113.880432,576.608337 
	C116.970352,577.833923 119.213882,579.599182 118.802582,583.157471 
	C118.412376,586.533264 116.092712,588.346924 112.868385,589.037109 
	C107.470833,590.192566 103.285965,588.155823 101.803299,583.586182 
	C105.379105,580.125977 109.698616,587.852112 113.405792,582.867310 
	C111.753441,580.221741 108.805405,580.362427 106.517914,579.328125 
	C103.542213,577.982788 101.376129,576.113220 101.936310,572.529480 
	C102.497658,568.938232 106.590775,566.548279 111.347137,567.037354 
	C114.640747,567.376038 117.596268,568.423218 118.245003,572.278931 
	C118.359062,572.956787 117.707375,573.425415 116.639526,573.531616 
z"/>
<path fill="#000000" opacity="1.000000" stroke="none" 
	d="
M291.607117,579.223389 
	C291.671448,575.986572 291.686737,573.167969 291.759216,570.350769 
	C291.791870,569.083252 292.248413,568.069275 293.739166,567.994324 
	C295.402924,567.910583 296.222961,568.827393 296.239136,570.383972 
	C296.294373,575.687744 296.297150,580.992126 296.286011,586.296326 
	C296.283875,587.320862 295.830109,588.862976 294.913391,588.578674 
	C290.646545,587.255615 286.165741,590.976318 282.025146,587.835022 
	C278.628052,585.257812 278.583466,581.664978 278.679993,577.953247 
	C278.740356,575.633057 278.691315,573.310181 278.739899,570.989502 
	C278.773041,569.405945 279.052002,567.965759 281.119171,567.902893 
	C283.059296,567.843811 283.808990,569.072327 283.910065,570.697876 
	C284.074402,573.342224 284.023834,575.999268 284.109131,578.649414 
	C284.183350,580.955688 283.885986,583.828552 286.855927,584.315491 
	C290.001678,584.831238 290.925751,582.153809 291.607117,579.223389 
z"/>
<path fill="#000000" opacity="1.000000" stroke="none" 
	d="
M130.218048,584.416138 
	C133.440063,584.599609 134.708603,581.045471 137.655350,581.367554 
	C138.269135,581.434631 138.853485,581.771118 139.419281,581.972046 
	C138.547211,587.145264 135.169983,589.688049 130.014359,589.223511 
	C124.603325,588.735962 120.822945,584.134094 120.845764,578.062439 
	C120.868141,572.107910 124.795410,567.487061 130.216888,567.036194 
	C134.937531,566.643555 138.523132,569.537720 139.485855,574.552063 
	C137.926422,575.628906 136.299377,575.605469 134.941345,574.361633 
	C132.628647,572.243530 130.054031,570.673401 127.718765,573.695618 
	C125.379944,576.722351 125.481415,580.213013 128.229736,583.239014 
	C128.660141,583.712830 129.319931,583.978333 130.218048,584.416138 
z"/>
<path fill="#000000" opacity="1.000000" stroke="none" 
	d="
M563.872559,588.282593 
	C560.602539,585.862610 560.848938,582.633545 560.721497,579.476685 
	C560.606079,576.617554 560.768372,574.036743 558.658081,571.212280 
	C556.356995,568.132507 560.504089,565.364929 562.308899,563.287903 
	C563.873901,561.486877 566.134521,563.302856 566.514221,566.054688 
	C566.704712,567.435791 568.214172,567.427246 569.132874,568.056274 
	C570.738037,569.155518 570.496338,570.541809 569.295288,571.816833 
	C564.975342,576.403015 565.036804,580.616943 569.469727,585.060730 
	C571.112183,586.707214 570.620056,588.025574 568.594910,588.797180 
	C567.138000,589.352356 565.651489,589.085510 563.872559,588.282593 
z"/>
<path fill="#000000" opacity="1.000000" stroke="none" 
	d="
M529.463562,576.808228 
	C529.370789,580.058411 529.338013,582.885803 529.286499,585.712891 
	C529.261047,587.105713 529.071228,588.492554 527.344360,588.698120 
	C525.600647,588.905640 524.229614,588.040771 524.186707,586.294556 
	C524.052185,580.817017 524.073303,575.332581 524.187622,569.854004 
	C524.224731,568.075012 525.572937,567.086487 527.271118,567.387573 
	C529.292664,567.746033 531.205261,567.573669 533.187134,567.247742 
	C534.586792,567.017578 535.890808,567.414307 536.142822,569.138550 
	C536.364380,570.654358 535.882141,571.876343 534.202759,572.019226 
	C531.436035,572.254578 530.064026,573.842102 529.463562,576.808228 
z"/>
<path fill="#000000" opacity="1.000000" stroke="none" 
	d="
M392.634583,567.849854 
	C394.906158,567.170410 397.098969,566.354370 397.971069,569.044800 
	C398.803040,571.611450 396.797424,571.963135 394.857941,572.329590 
	C392.019806,572.865784 391.347107,575.060669 391.300079,577.565491 
	C391.250183,580.222168 391.277161,582.880310 391.223816,585.536865 
	C391.192261,587.108826 390.941772,588.649048 388.894592,588.684021 
	C387.129639,588.714111 386.002747,587.718506 385.977142,585.969177 
	C385.899384,580.658020 385.607544,575.315613 386.057159,570.041565 
	C386.438812,565.565369 389.988647,568.038025 392.634583,567.849854 
z"/>
<path fill="#000000" opacity="1.000000" stroke="none" 
	d="
M594.652649,582.818604 
	C594.664917,578.372742 594.699829,574.398682 594.684875,570.424805 
	C594.677307,568.406250 595.617004,566.914551 597.606995,567.497559 
	C599.679688,568.104736 601.433655,567.743958 603.358276,567.263245 
	C604.744202,566.917114 606.131226,567.317993 606.497070,568.909302 
	C606.885803,570.600403 606.224609,571.848938 604.320374,572.080566 
	C600.172668,572.585266 599.536682,575.504333 599.536438,578.921814 
	C599.536255,581.071533 599.453979,583.221985 599.371033,585.370728 
	C599.313293,586.867493 599.361572,588.591309 597.276245,588.678040 
	C594.969177,588.774109 594.727783,587.042908 594.690491,585.277100 
	C594.676514,584.614929 594.666504,583.952637 594.652649,582.818604 
z"/>
<path fill="#000000" opacity="1.000000" stroke="none" 
	d="
M185.677368,577.029907 
	C185.673080,575.224548 185.692245,573.901611 185.662338,572.579834 
	C185.583420,569.092041 185.567902,565.905823 190.754776,567.971436 
	C191.888062,568.422668 193.572311,567.329773 195.026413,567.184875 
	C196.274033,567.060425 197.307999,567.672791 197.573822,569.026489 
	C197.811813,570.238525 197.656235,571.712708 196.299347,571.848877 
	C190.032501,572.477600 190.790161,577.132019 190.339767,581.391479 
	C190.078949,583.858032 192.211090,588.225464 188.434860,588.429382 
	C183.703094,588.684875 186.374619,583.962830 185.736099,581.466003 
	C185.418610,580.224609 185.679306,578.835266 185.677368,577.029907 
z"/>
<path fill="#000000" opacity="1.000000" stroke="none" 
	d="
M96.038345,588.758057 
	C94.907967,588.433411 93.672234,588.178589 93.564613,587.680237 
	C92.263565,581.655151 92.428879,575.533508 93.385902,569.521606 
	C93.742371,567.282349 96.065575,567.224182 97.633034,568.843079 
	C99.303329,570.568176 98.217926,586.468689 96.038345,588.758057 
z"/>
<path fill="#000000" opacity="1.000000" stroke="none" 
	d="
M96.496857,564.595398 
	C93.651031,564.539307 92.473366,563.249756 93.484421,560.854431 
	C94.143433,559.293091 95.827156,558.844421 97.180733,559.867004 
	C99.203751,561.395386 99.024666,563.104736 96.496857,564.595398 
z"/>
<path fill="#000000" opacity="1.000000" stroke="none" 
	d="
M603.151489,527.299316 
	C600.491516,527.392517 599.245972,526.473022 599.896423,524.065430 
	C600.488098,521.875427 601.006226,519.615967 602.853027,517.641541 
	C605.841980,519.542480 606.116577,522.724670 606.482483,525.629028 
	C606.714417,527.469971 604.743713,527.090210 603.151489,527.299316 
z"/>
</svg>